{
  "accessors": [
    {
      "bufferView": 0,
      "componentType": 5125,
      "count": 173952,
      "type": "SCALAR"
    },
    {
      "bufferView": 1,
      "componentType": 5126,
      "count": 42102,
      "max": [
        0.2047522601045308,
        0.20518564094798908,
        0.04151752918601018
      ],
      "min": [
        -0.2047522601045308,
        -0.20518564094798905,
        -0.041517529186010184
      ],
      "type": "VEC3"
    },
    {
      "bufferView": 2,
      "componentType": 5126,
      "count": 42102,
      "max": [
        0.9999999934316114,
        0.9999999993032324,
        0.9999796608681388
      ],
      "min": [
        -0.9999999999603202,
        -0.9999999997120154,
        -0.9999796608681388
      ],
      "type": "VEC3"
    },
    {
      "bufferView": 3,
      "componentType": 5126,
      "count": 42102,
      "max": [
        1.0,
        0.6715088895586127
      ],
      "min": [
        0.0,
        0.0
      ],
      "type": "VEC2"
    }
  ],
  "asset": {
    "generator": "Adobe Illustrator",
    "version": "2.0"
  },
  "bufferViews": [
    {
      "buffer": 0,
      "byteLength": 695808,
      "target": 34963
    },
    {
      "buffer": 0,
      "byteLength": 505224,
      "byteOffset": 695808,
      "target": 34962
    },
    {
      "buffer": 0,
      "byteLength": 505224,
      "byteOffset": 1201032,
      "target": 34962
    },
    {
      "buffer": 0,
      "byteLength": 336816,
      "byteOffset": 1706256,
      "target": 34962
    }
  ],
  "buffers": [
    {
      "byteLength": 2043072,
      "uri": "data:application/octet-stream;base64,"
    }
  ],
  "materials": [
    {
      "doubleSided": true,
      "pbrMetallicRoughness": {
        "baseColorFactor": [
          0.921875,
          0.9140625,
          0.9062500596046448,
          1.0
        ],
        "metallicFactor": 0.0,
        "roughnessFactor": 0.4000000059604645
      }
    }
  ],
  "meshes": [
    {
      "primitives": [
        {
          "attributes": {
            "NORMAL": 2,
            "POSITION": 1,
            "TEXCOORD_0": 3
          },
          "indices": 0,
          "material": 0,
          "mode": 4
        }
      ]
    }
  ],
  "nodes": [
    {
      "mesh": 0
    }
  ],
  "scenes": [
    {
      "nodes": [
        0
      ]
    }
  ]
}
